<svg width="20" height="21" viewBox="0 0 20 21" fill="none" xmlns="http://www.w3.org/2000/svg">
<path d="M11.1542 10.2497L17.0136 3.09074C17.1118 2.97176 17.0292 2.79102 16.8774 2.79102H15.0962C14.9913 2.79102 14.8908 2.83906 14.8216 2.92143L9.98902 8.82662L5.15643 2.92143C5.08947 2.83906 4.98902 2.79102 4.88188 2.79102H3.10063C2.94884 2.79102 2.86625 2.97176 2.96446 3.09074L8.82384 10.2497L2.96446 17.4087C2.94246 17.4352 2.92835 17.4677 2.9238 17.5022C2.91924 17.5367 2.92444 17.5718 2.93878 17.6033C2.95312 17.6349 2.97599 17.6616 3.00467 17.6802C3.03336 17.6988 3.06666 17.7086 3.10063 17.7084H4.88188C4.98679 17.7084 5.08723 17.6604 5.15643 17.578L9.98902 11.6728L14.8216 17.578C14.8886 17.6604 14.989 17.7084 15.0962 17.7084H16.8774C17.0292 17.7084 17.1118 17.5277 17.0136 17.4087L11.1542 10.2497Z" fill="#A1A1A1"/>
</svg>
