<svg width="31" height="14" viewBox="0 0 31 14" fill="none" xmlns="http://www.w3.org/2000/svg">
<path d="M8.28608 4.716H11.2441V5.364H9.03608V6.486H10.9741V7.098H9.03608V9H8.28608V4.716ZM11.8427 4.716H13.8887C14.3607 4.716 14.7147 4.818 14.9507 5.022C15.1867 5.226 15.3047 5.51 15.3047 5.874C15.3047 6.078 15.2747 6.248 15.2147 6.384C15.1547 6.516 15.0847 6.624 15.0047 6.708C14.9247 6.788 14.8447 6.846 14.7647 6.882C14.6887 6.918 14.6327 6.942 14.5967 6.954V6.966C14.6607 6.974 14.7287 6.994 14.8007 7.026C14.8767 7.058 14.9467 7.11 15.0107 7.182C15.0747 7.25 15.1267 7.34 15.1667 7.452C15.2107 7.564 15.2327 7.704 15.2327 7.872C15.2327 8.124 15.2507 8.354 15.2867 8.562C15.3267 8.766 15.3867 8.912 15.4667 9H14.6627C14.6067 8.908 14.5727 8.806 14.5607 8.694C14.5527 8.582 14.5487 8.474 14.5487 8.37C14.5487 8.174 14.5367 8.006 14.5127 7.866C14.4887 7.722 14.4447 7.604 14.3807 7.512C14.3167 7.416 14.2287 7.346 14.1167 7.302C14.0087 7.258 13.8687 7.236 13.6967 7.236H12.5927V9H11.8427V4.716ZM12.5927 6.666H13.8227C14.0627 6.666 14.2447 6.61 14.3687 6.498C14.4927 6.382 14.5547 6.21 14.5547 5.982C14.5547 5.846 14.5347 5.736 14.4947 5.652C14.4547 5.564 14.3987 5.496 14.3267 5.448C14.2587 5.4 14.1787 5.368 14.0867 5.352C13.9987 5.336 13.9067 5.328 13.8107 5.328H12.5927V6.666ZM16.0673 4.716H19.1513V5.364H16.8173V6.486H18.9773V7.098H16.8173V8.352H19.1933V9H16.0673V4.716ZM19.8466 4.716H22.9306V5.364H20.5966V6.486H22.7566V7.098H20.5966V8.352H22.9726V9H19.8466V4.716Z" fill="white"/>
<rect x="0.5" y="0.5" width="30" height="13" rx="4.5" stroke="white"/>
</svg>
