<svg width="308" height="274" viewBox="0 0 308 274" fill="none" xmlns="http://www.w3.org/2000/svg">
<path d="M255.596 32.8262C258.666 35.8044 260.046 41.2916 258.618 49.9172C257.21 58.4167 253.19 69.1102 246.749 81.3325C233.888 105.735 211.761 135.506 183.375 164.766C154.988 194.025 125.902 217.043 101.9 230.638C89.8784 237.447 79.3116 241.789 70.8586 243.453C62.2803 245.142 56.7538 243.929 53.684 240.951C50.6142 237.972 49.2339 232.485 50.6623 223.86C52.0698 215.36 56.0897 204.667 62.5314 192.444C75.3925 168.042 97.5188 138.271 125.905 109.011C154.292 79.7515 183.379 56.7335 207.38 43.1391C219.402 36.33 229.969 31.9881 238.421 30.3237C247 28.6347 252.526 29.8481 255.596 32.8262Z" stroke="url(#paint0_linear_495_7929)" stroke-width="7"/>
<path d="M287.568 81.5196C289.217 85.4659 288.325 91.0533 283.616 98.4195C278.975 105.678 271.069 113.925 260.335 122.623C238.904 139.989 206.842 158.642 169.227 174.36C131.612 190.078 95.8115 199.782 68.396 202.827C54.6644 204.352 43.2416 204.182 34.8162 202.383C26.2658 200.558 21.6636 197.266 20.0146 193.32C18.3656 189.374 19.2576 183.786 23.9671 176.42C28.6078 169.161 36.5138 160.915 47.248 152.217C68.6791 134.85 100.741 116.198 138.356 100.48C175.971 84.762 211.771 75.0576 239.187 72.0128C252.918 70.4877 264.341 70.6575 272.767 72.4563C281.317 74.2817 285.919 77.5733 287.568 81.5196Z" stroke="url(#paint1_linear_495_7929)" stroke-width="7"/>
<path d="M158 247.25C208.311 247.25 250.587 212.012 262.588 164.317M158 247.25C107.689 247.25 65.413 212.012 53.4116 164.317M158 247.25C187.823 247.25 212 197.721 212 136.625C212 75.5285 187.823 26 158 26M158 247.25C128.177 247.25 104 197.721 104 136.625C104 75.5285 128.177 26 158 26M158 26C198.382 26 233.588 48.702 252.117 82.3259M158 26C117.618 26 82.4119 48.702 63.8831 82.3259M252.117 82.3259C226.877 104.671 193.979 118.187 158 118.187C122.021 118.187 89.1232 104.671 63.8831 82.3259M252.117 82.3259C260.956 98.3663 266 116.892 266 136.625C266 146.188 264.815 155.467 262.588 164.317M262.588 164.317C231.6 181.917 195.943 191.937 158 191.937C120.057 191.937 84.3995 181.917 53.4116 164.317M53.4116 164.317C51.1846 155.467 50 146.188 50 136.625C50 116.892 55.0439 98.3663 63.8831 82.3259" stroke="url(#paint2_radial_495_7929)" stroke-width="10" stroke-linecap="round" stroke-linejoin="round"/>
<defs>
<linearGradient id="paint0_linear_495_7929" x1="191.129" y1="155.143" x2="149.513" y2="114.769" gradientUnits="userSpaceOnUse">
<stop stop-color="#49A5F2"/>
<stop offset="1" stop-color="#49A5F2" stop-opacity="0"/>
</linearGradient>
<linearGradient id="paint1_linear_495_7929" x1="178.5" y1="169.501" x2="157.5" y2="112.001" gradientUnits="userSpaceOnUse">
<stop stop-color="#49A5F2"/>
<stop offset="1" stop-color="#49A5F2" stop-opacity="0"/>
</linearGradient>
<radialGradient id="paint2_radial_495_7929" cx="0" cy="0" r="1" gradientUnits="userSpaceOnUse" gradientTransform="translate(158 137.096) rotate(90) scale(125.029 122.062)">
<stop offset="0.348272" stop-color="#48A5F2"/>
<stop offset="1" stop-color="#48A5F2" stop-opacity="0"/>
</radialGradient>
</defs>
</svg>
