<svg width="40" height="20" viewBox="0 0 40 20" fill="none" xmlns="http://www.w3.org/2000/svg">
<path d="M13.6475 9.354H14.5015C14.6275 9.354 14.7489 9.34467 14.8655 9.326C14.9822 9.30733 15.0849 9.27233 15.1735 9.221C15.2622 9.165 15.3322 9.088 15.3835 8.99C15.4395 8.892 15.4675 8.76367 15.4675 8.605C15.4675 8.44633 15.4395 8.318 15.3835 8.22C15.3322 8.122 15.2622 8.04733 15.1735 7.996C15.0849 7.94 14.9822 7.90267 14.8655 7.884C14.7489 7.86533 14.6275 7.856 14.5015 7.856H13.6475V9.354ZM12.5485 7.002H14.8025C15.1152 7.002 15.3812 7.04867 15.6005 7.142C15.8199 7.23067 15.9972 7.34967 16.1325 7.499C16.2725 7.64833 16.3729 7.81867 16.4335 8.01C16.4989 8.20133 16.5315 8.39967 16.5315 8.605C16.5315 8.80567 16.4989 9.004 16.4335 9.2C16.3729 9.39133 16.2725 9.56167 16.1325 9.711C15.9972 9.86033 15.8199 9.98167 15.6005 10.075C15.3812 10.1637 15.1152 10.208 14.8025 10.208H13.6475V12H12.5485V7.002ZM18.6665 9.263H19.8705C20.1225 9.263 20.3115 9.207 20.4375 9.095C20.5635 8.983 20.6265 8.801 20.6265 8.549C20.6265 8.30633 20.5635 8.13133 20.4375 8.024C20.3115 7.912 20.1225 7.856 19.8705 7.856H18.6665V9.263ZM17.5675 7.002H20.2625C20.4865 7.002 20.6871 7.03933 20.8645 7.114C21.0465 7.184 21.2005 7.282 21.3265 7.408C21.4571 7.534 21.5551 7.681 21.6205 7.849C21.6905 8.01233 21.7255 8.18967 21.7255 8.381C21.7255 8.675 21.6625 8.92933 21.5365 9.144C21.4151 9.35867 21.2145 9.522 20.9345 9.634V9.648C21.0698 9.68533 21.1818 9.74367 21.2705 9.823C21.3591 9.89767 21.4315 9.98867 21.4875 10.096C21.5435 10.1987 21.5831 10.313 21.6065 10.439C21.6345 10.565 21.6531 10.691 21.6625 10.817C21.6671 10.8963 21.6718 10.9897 21.6765 11.097C21.6811 11.2043 21.6881 11.314 21.6975 11.426C21.7115 11.538 21.7301 11.6453 21.7535 11.748C21.7815 11.846 21.8211 11.93 21.8725 12H20.7735C20.7128 11.8413 20.6755 11.6523 20.6615 11.433C20.6475 11.2137 20.6265 11.0037 20.5985 10.803C20.5611 10.5417 20.4818 10.3503 20.3605 10.229C20.2391 10.1077 20.0408 10.047 19.7655 10.047H18.6665V12H17.5675V7.002ZM23.8512 9.522C23.8512 9.732 23.8746 9.93733 23.9212 10.138C23.9726 10.334 24.0519 10.5113 24.1592 10.67C24.2666 10.8287 24.4066 10.957 24.5792 11.055C24.7519 11.1483 24.9619 11.195 25.2092 11.195C25.4566 11.195 25.6666 11.1483 25.8392 11.055C26.0119 10.957 26.1519 10.8287 26.2592 10.67C26.3666 10.5113 26.4436 10.334 26.4902 10.138C26.5416 9.93733 26.5672 9.732 26.5672 9.522C26.5672 9.30267 26.5416 9.09033 26.4902 8.885C26.4436 8.67967 26.3666 8.49767 26.2592 8.339C26.1519 8.17567 26.0119 8.04733 25.8392 7.954C25.6666 7.856 25.4566 7.807 25.2092 7.807C24.9619 7.807 24.7519 7.856 24.5792 7.954C24.4066 8.04733 24.2666 8.17567 24.1592 8.339C24.0519 8.49767 23.9726 8.67967 23.9212 8.885C23.8746 9.09033 23.8512 9.30267 23.8512 9.522ZM22.7522 9.522C22.7522 9.14867 22.8082 8.80333 22.9202 8.486C23.0322 8.164 23.1932 7.884 23.4032 7.646C23.6132 7.408 23.8699 7.22133 24.1732 7.086C24.4812 6.95067 24.8266 6.883 25.2092 6.883C25.5966 6.883 25.9419 6.95067 26.2452 7.086C26.5486 7.22133 26.8052 7.408 27.0152 7.646C27.2252 7.884 27.3862 8.164 27.4982 8.486C27.6102 8.80333 27.6662 9.14867 27.6662 9.522C27.6662 9.886 27.6102 10.2267 27.4982 10.544C27.3862 10.8567 27.2252 11.1297 27.0152 11.363C26.8052 11.5963 26.5486 11.7807 26.2452 11.916C25.9419 12.0467 25.5966 12.112 25.2092 12.112C24.8266 12.112 24.4812 12.0467 24.1732 11.916C23.8699 11.7807 23.6132 11.5963 23.4032 11.363C23.1932 11.1297 23.0322 10.8567 22.9202 10.544C22.8082 10.2267 22.7522 9.886 22.7522 9.522Z" fill="url(#paint0_linear_495_7972)"/>
<rect x="3.5" y="2.5" width="32.1145" height="14" rx="4.5" stroke="url(#paint1_linear_495_7972)"/>
<defs>
<linearGradient id="paint0_linear_495_7972" x1="9.8884" y1="9" x2="31.4268" y2="9" gradientUnits="userSpaceOnUse">
<stop stop-color="#2D55DA"/>
<stop offset="0.252717" stop-color="#48A5F2"/>
<stop offset="1" stop-color="#8E61E3"/>
</linearGradient>
<linearGradient id="paint1_linear_495_7972" x1="-1.3703" y1="9.5" x2="43.2068" y2="9.5" gradientUnits="userSpaceOnUse">
<stop stop-color="#2D55DA"/>
<stop offset="0.252717" stop-color="#48A5F2"/>
<stop offset="1" stop-color="#8E61E3"/>
</linearGradient>
</defs>
</svg>
