<svg width="37" height="43" viewBox="0 0 37 43" fill="none" xmlns="http://www.w3.org/2000/svg">
<path d="M0 0V20.4913C0 25.9261 2.60033 31.1147 6.9603 34.3721L18.0284 42.6416L29.4037 34.4503C33.9144 31.2016 36.6104 25.9434 36.6104 20.3899V0H0ZM31.7228 4.88177V13.519L30.3546 12.5258C23.145 7.29949 13.4597 7.30238 6.25586 12.5258L4.88467 13.519V4.88177H31.7228ZM31.0851 19.0841L27.4846 21.6929C21.9941 25.6741 14.6134 25.6741 9.12289 21.6929L5.52244 19.0841L9.12289 16.4752C14.6134 12.494 21.9941 12.494 27.4846 16.4752L31.0851 19.0841ZM26.5454 30.4951L18.0805 36.5901L9.88531 30.4662C8.11407 29.1429 6.74868 27.3738 5.8935 25.3817L6.25296 25.6423C9.85632 28.254 14.08 29.5599 18.3038 29.5599C22.5275 29.5599 26.7512 28.254 30.3546 25.6423L30.6531 25.4251C29.769 27.423 28.363 29.1864 26.5454 30.4951Z" fill="white"/>
<path d="M18.3085 22.4314C20.2954 22.4314 21.906 20.8208 21.906 18.8339C21.906 16.847 20.2954 15.2363 18.3085 15.2363C16.3216 15.2363 14.7109 16.847 14.7109 18.8339C14.7109 20.8208 16.3216 22.4314 18.3085 22.4314Z" fill="white"/>
</svg>
