<svg width="19" height="19" viewBox="0 0 19 19" fill="none" xmlns="http://www.w3.org/2000/svg">
<path d="M8.76888 1.6289C9.0265 1.35146 9.44418 1.35146 9.70179 1.62889L17.3446 9.85956C17.6022 10.137 18.0198 10.137 18.2775 9.85956C18.5351 9.58213 18.5351 9.13232 18.2775 8.85489L10.6347 0.624223C9.86185 -0.208075 8.60882 -0.208073 7.83597 0.624224L0.193212 8.85489C-0.064404 9.13232 -0.064404 9.58213 0.193212 9.85956C0.450828 10.137 0.868506 10.137 1.12612 9.85956L8.76888 1.6289Z" fill="white"/>
<path d="M9.23534 3.1359L16.4116 10.8642C16.4378 10.8924 16.4645 10.9196 16.4917 10.9458V16.8165C16.4917 17.7974 15.7533 18.5926 14.8425 18.5926H11.874C11.5097 18.5926 11.2143 18.2745 11.2143 17.8821V13.6197C11.2143 13.2273 10.919 12.9093 10.5547 12.9093H7.916C7.55168 12.9093 7.25634 13.2273 7.25634 13.6197V17.8821C7.25634 18.2745 6.96099 18.5926 6.59667 18.5926H3.62817C2.71736 18.5926 1.979 17.7974 1.979 16.8165V10.9458C2.0062 10.9196 2.03289 10.8924 2.05903 10.8642L9.23534 3.1359Z" fill="white"/>
</svg>
