<svg width="232" height="182" viewBox="0 0 232 182" fill="none" xmlns="http://www.w3.org/2000/svg">
<path d="M38.5394 114.727H193.966M38.5394 114.727C19.4638 114.727 4 100.563 4 83.0909M38.5394 114.727C19.4638 114.727 4 128.891 4 146.364C4 163.836 19.4638 178 38.5394 178H193.966C213.042 178 228.506 163.836 228.506 146.364C228.506 128.891 213.042 114.727 193.966 114.727M4 83.0909C4 65.6186 19.4638 51.4545 38.5394 51.4545H193.966C213.042 51.4545 228.506 65.6186 228.506 83.0909M4 83.0909C4 72.8232 7.63585 62.8324 14.3618 54.6182L44.152 18.2364C51.4903 9.27437 63.007 4 75.2374 4H157.268C169.499 4 181.016 9.27437 188.354 18.2364L218.144 54.6182C224.87 62.8324 228.506 72.8232 228.506 83.0909M228.506 83.0909C228.506 100.563 213.042 114.727 193.966 114.727M193.966 146.364H194.053V146.443H193.966V146.364ZM193.966 83.0909H194.053V83.17H193.966V83.0909ZM159.427 146.364H159.513V146.443H159.427V146.364ZM159.427 83.0909H159.513V83.17H159.427V83.0909Z" stroke="url(#paint0_radial_495_8775)" stroke-width="7" stroke-linecap="round" stroke-linejoin="round"/>
<defs>
<radialGradient id="paint0_radial_495_8775" cx="0" cy="0" r="1" gradientUnits="userSpaceOnUse" gradientTransform="translate(116 99.5) rotate(180) scale(182 115.081)">
<stop offset="0.55" stop-color="#4AA6F3"/>
<stop offset="1" stop-color="#4AA6F3" stop-opacity="0"/>
</radialGradient>
</defs>
</svg>
