<svg width="18" height="19" viewBox="0 0 18 19" fill="none" xmlns="http://www.w3.org/2000/svg">
<path d="M6.86045 1.89043C6.94608 1.3766 7.39065 1 7.91156 1H10.3686C10.8895 1 11.3341 1.3766 11.4197 1.89043L11.622 3.10386C11.681 3.45816 11.9178 3.75328 12.232 3.92723C12.3023 3.96612 12.3717 4.0063 12.4404 4.04773C12.7482 4.23364 13.1227 4.29144 13.4595 4.16526L14.6121 3.73345C15.0999 3.5507 15.6484 3.7474 15.9088 4.19853L17.1373 6.32639C17.3978 6.77751 17.2939 7.35082 16.8918 7.6819L15.9404 8.46507C15.6634 8.69316 15.526 9.04537 15.5327 9.40418C15.5334 9.44434 15.5338 9.48459 15.5338 9.52493C15.5338 9.56526 15.5334 9.6055 15.5327 9.64566C15.526 10.0045 15.6634 10.3567 15.9404 10.5848L16.8918 11.3679C17.2939 11.699 17.3978 12.2723 17.1373 12.7235L15.9088 14.8513C15.6484 15.3024 15.0999 15.4991 14.6121 15.3164L13.4595 14.8846C13.1227 14.7584 12.7482 14.8162 12.4404 15.0021C12.3718 15.0435 12.3023 15.0837 12.232 15.1226C11.9178 15.2966 11.681 15.5917 11.622 15.946L11.4197 17.1594C11.3341 17.6733 10.8895 18.0499 10.3686 18.0499H7.91156C7.39065 18.0499 6.94608 17.6733 6.86045 17.1594L6.65821 15.946C6.59916 15.5917 6.36238 15.2966 6.04813 15.1226C5.97787 15.0837 5.90842 15.0436 5.83981 15.0021C5.53193 14.8162 5.15747 14.7584 4.82067 14.8846L3.66804 15.3164C3.18023 15.4992 2.6318 15.3025 2.37134 14.8513L1.14282 12.7235C0.882367 12.2723 0.986233 11.699 1.3884 11.368L2.33974 10.5848C2.6168 10.3567 2.75415 10.0045 2.7475 9.64567C2.74676 9.60551 2.74639 9.56526 2.74639 9.52493C2.74639 9.4846 2.74676 9.44435 2.7475 9.4042C2.75415 9.04538 2.6168 8.69317 2.33974 8.46508L1.3884 7.68191C0.986232 7.35083 0.882367 6.77753 1.14282 6.3264L2.37134 4.19854C2.6318 3.74742 3.18023 3.55071 3.66804 3.73346L4.82066 4.16527C5.15745 4.29145 5.53192 4.23365 5.83979 4.04774C5.90841 4.0063 5.97786 3.96613 6.04813 3.92723C6.36238 3.75328 6.59916 3.45816 6.65821 3.10386L6.86045 1.89043Z" stroke="white" stroke-width="1.42082" stroke-linecap="round" stroke-linejoin="round"/>
<path d="M11.9815 9.52485C11.9815 11.0942 10.7093 12.3665 9.13986 12.3665C7.57047 12.3665 6.29822 11.0942 6.29822 9.52485C6.29822 7.95546 7.57047 6.68321 9.13986 6.68321C10.7093 6.68321 11.9815 7.95546 11.9815 9.52485Z" stroke="white" stroke-width="1.42082" stroke-linecap="round" stroke-linejoin="round"/>
</svg>
