<svg width="23" height="21" viewBox="0 0 23 21" fill="none" xmlns="http://www.w3.org/2000/svg">
<path d="M10.9044 1.37679C11.1248 0.874403 11.8752 0.874403 12.0956 1.37679L14.5335 6.93536C14.6264 7.14715 14.8365 7.29186 15.0776 7.31019L21.4056 7.79128C21.9775 7.83477 22.2094 8.51162 21.7737 8.86559L16.9524 12.7821C16.7687 12.9313 16.6885 13.1654 16.7446 13.3886L18.2176 19.2445C18.3507 19.7737 17.7436 20.192 17.2539 19.9084L11.8362 16.7704C11.6298 16.6508 11.3702 16.6508 11.1638 16.7704L5.7461 19.9084C5.25645 20.192 4.6493 19.7737 4.78243 19.2445L6.25541 13.3886C6.31153 13.1654 6.23131 12.9313 6.04761 12.7821L1.22632 8.86559C0.790569 8.51162 1.02248 7.83477 1.59441 7.79128L7.92243 7.31019C8.16354 7.29186 8.37358 7.14715 8.46647 6.93536L10.9044 1.37679Z" fill="#252931" stroke="white" stroke-width="1.5" stroke-linecap="round" stroke-linejoin="round"/>
</svg>
