<svg width="366" height="455" viewBox="0 0 366 455" fill="none" xmlns="http://www.w3.org/2000/svg">
<path d="M293.372 423.8L293.102 424.286L293.345 424.783L292.793 424.545L292.23 424.758L292.5 424.273L292.257 423.776L292.808 424.014L293.372 423.8Z" fill="#6F6C7D"/>
<path d="M178.028 370.644L177.758 371.13L178.001 371.626L177.45 371.388L176.886 371.602L177.156 371.117L176.913 370.62L177.464 370.858L178.028 370.644Z" fill="#6F6C7D"/>
<path d="M138.302 103.38L138.032 103.866L138.274 104.363L137.723 104.125L137.159 104.339L137.429 103.853L137.187 103.356L137.738 103.594L138.302 103.38Z" fill="#6F6C7D"/>
<path d="M335.708 276.785L335.438 277.27L335.68 277.767L335.129 277.529L334.565 277.743L334.835 277.257L334.593 276.76L335.144 276.998L335.708 276.785Z" fill="#6F6C7D"/>
<path d="M334.505 399.81L334.235 400.296L334.477 400.792L333.926 400.554L333.362 400.768L333.632 400.283L333.39 399.786L333.941 400.024L334.505 399.81Z" fill="#6F6C7D"/>
<path d="M356.77 322.919L356.5 323.405L356.743 323.902L356.192 323.664L355.628 323.878L355.898 323.392L355.655 322.895L356.207 323.133L356.77 322.919Z" fill="#6F6C7D"/>
<path d="M27.5672 80.5775L27.2972 81.0632L27.5398 81.56L26.9886 81.322L26.4248 81.5358L26.6949 81.0501L26.4522 80.5534L27.0034 80.7913L27.5672 80.5775Z" fill="#6F6C7D"/>
<path d="M362.794 236.482L362.524 236.967L362.766 237.464L362.215 237.226L361.651 237.44L361.921 236.954L361.679 236.458L362.23 236.696L362.794 236.482Z" fill="#6F6C7D"/>
<path d="M1.68443 166.484L1.41438 166.969L1.65703 167.466L1.10582 167.228L0.542005 167.442L0.812062 166.956L0.569412 166.46L1.12062 166.698L1.68443 166.484Z" fill="#6F6C7D"/>
<path d="M144.927 341.48L144.657 341.966L144.899 342.462L144.348 342.224L143.784 342.438L144.054 341.952L143.812 341.456L144.363 341.694L144.927 341.48Z" fill="#6F6C7D"/>
<path d="M42.0047 440.113L41.7347 440.598L41.9773 441.095L41.4261 440.857L40.8623 441.071L41.1324 440.585L40.8897 440.089L41.4409 440.326L42.0047 440.113Z" fill="white" fill-opacity="0.9"/>
<path d="M156.356 451.779L156.086 452.264L156.329 452.761L155.778 452.523L155.214 452.737L155.484 452.251L155.241 451.755L155.792 451.992L156.356 451.779Z" fill="white" fill-opacity="0.9"/>
<path d="M244.833 372.767L244.563 373.253L244.805 373.749L244.254 373.511L243.69 373.725L243.96 373.24L243.718 372.743L244.269 372.981L244.833 372.767Z" fill="white" fill-opacity="0.9"/>
<path d="M177.427 217.921L177.157 218.407L177.399 218.904L176.848 218.666L176.284 218.88L176.554 218.394L176.312 217.897L176.863 218.135L177.427 217.921Z" fill="white" fill-opacity="0.9"/>
<path d="M178.63 0.503299L178.36 0.988972L178.602 1.48575L178.051 1.2478L177.487 1.4616L177.757 0.975927L177.515 0.479151L178.066 0.717099L178.63 0.503299Z" fill="white" fill-opacity="0.9"/>
<path d="M265.895 313.374L265.625 313.86L265.868 314.357L265.317 314.119L264.753 314.333L265.023 313.847L264.78 313.35L265.332 313.588L265.895 313.374Z" fill="white" fill-opacity="0.9"/>
<path d="M365.2 424.734L364.93 425.219L365.173 425.716L364.621 425.478L364.058 425.692L364.328 425.206L364.085 424.71L364.636 424.948L365.2 424.734Z" fill="white" fill-opacity="0.9"/>
<path d="M328.489 335.115L328.219 335.6L328.462 336.097L327.911 335.859L327.347 336.073L327.617 335.587L327.374 335.09L327.925 335.328L328.489 335.115Z" fill="white" fill-opacity="0.9"/>
<g filter="url(#filter0_f_495_7930)">
<path d="M223.161 274.662L222.891 275.147L223.134 275.644L222.582 275.406L222.019 275.62L222.289 275.134L222.046 274.637L222.597 274.875L223.161 274.662Z" fill="white" fill-opacity="0.9"/>
</g>
<g filter="url(#filter1_f_495_7930)">
<path d="M126.263 55.1224L125.993 55.6081L126.235 56.1049L125.684 55.8669L125.12 56.0807L125.39 55.5951L125.148 55.0983L125.699 55.3362L126.263 55.1224Z" fill="white" fill-opacity="0.9"/>
</g>
<g filter="url(#filter2_f_495_7930)">
<path d="M25.1532 204.663L24.8831 205.149L25.1258 205.646L24.5746 205.408L24.0108 205.622L24.2808 205.136L24.0382 204.639L24.5894 204.877L25.1532 204.663Z" fill="white" fill-opacity="0.9"/>
</g>
<g filter="url(#filter3_f_495_7930)">
<path d="M73.3016 319.738L73.0316 320.223L73.2742 320.72L72.723 320.482L72.1592 320.696L72.4292 320.21L72.1866 319.714L72.7378 319.951L73.3016 319.738Z" fill="white" fill-opacity="0.9"/>
</g>
<g filter="url(#filter4_f_495_7930)">
<path d="M213.536 78.4564L213.266 78.9421L213.509 79.4389L212.957 79.2009L212.394 79.4147L212.664 78.9291L212.421 78.4323L212.972 78.6702L213.536 78.4564Z" fill="white" fill-opacity="0.9"/>
</g>
<g filter="url(#filter5_f_495_7930)">
<path d="M258.152 14.311L257.324 15.8004L258.068 17.3238L256.378 16.5941L254.649 17.2497L255.477 15.7604L254.733 14.2369L256.423 14.9666L258.152 14.311Z" fill="#868592"/>
</g>
<g filter="url(#filter6_f_495_7930)">
<path d="M33.0583 131.463L32.2301 132.953L32.9742 134.476L31.2839 133.746L29.5549 134.402L30.3831 132.913L29.6389 131.389L31.3293 132.119L33.0583 131.463Z" fill="#868592"/>
</g>
<g filter="url(#filter7_f_495_7930)">
<path d="M122.738 177.6L121.91 179.089L122.654 180.613L120.964 179.883L119.235 180.539L120.063 179.049L119.319 177.526L121.009 178.256L122.738 177.6Z" fill="#868592"/>
</g>
<g filter="url(#filter8_f_495_7930)">
<path d="M242.504 449.637L241.675 451.127L242.42 452.65L240.729 451.92L239 452.576L239.828 451.087L239.084 449.563L240.775 450.293L242.504 449.637Z" fill="white" fill-opacity="0.9"/>
</g>
<g filter="url(#filter9_f_495_7930)">
<path d="M296.066 449.637L295.238 451.127L295.982 452.65L294.292 451.92L292.563 452.576L293.391 451.087L292.647 449.563L294.337 450.293L296.066 449.637Z" fill="white" fill-opacity="0.9"/>
</g>
<g filter="url(#filter10_f_495_7930)">
<path d="M225.652 346.76L224.824 348.25L225.568 349.773L223.878 349.043L222.149 349.699L222.977 348.21L222.233 346.686L223.923 347.416L225.652 346.76Z" fill="#6E6B7C"/>
</g>
<g filter="url(#filter11_f_495_7930)">
<path d="M256.949 231.688L256.121 233.177L256.865 234.701L255.175 233.971L253.446 234.627L254.274 233.137L253.53 231.614L255.22 232.344L256.949 231.688Z" fill="white" fill-opacity="0.9"/>
</g>
<g filter="url(#filter12_f_495_7930)">
<path d="M302.683 302.747L301.855 304.236L302.599 305.759L300.909 305.03L299.18 305.685L300.008 304.196L299.264 302.672L300.954 303.402L302.683 302.747Z" fill="white" fill-opacity="0.9"/>
</g>
<defs>
<filter id="filter0_f_495_7930" x="221.298" y="273.919" width="2.58461" height="2.44398" filterUnits="userSpaceOnUse" color-interpolation-filters="sRGB">
<feFlood flood-opacity="0" result="BackgroundImageFix"/>
<feBlend mode="normal" in="SourceGraphic" in2="BackgroundImageFix" result="shape"/>
<feGaussianBlur stdDeviation="0.359043" result="effect1_foregroundBlur_495_7930"/>
</filter>
<filter id="filter1_f_495_7930" x="124.399" y="54.3796" width="2.58461" height="2.44398" filterUnits="userSpaceOnUse" color-interpolation-filters="sRGB">
<feFlood flood-opacity="0" result="BackgroundImageFix"/>
<feBlend mode="normal" in="SourceGraphic" in2="BackgroundImageFix" result="shape"/>
<feGaussianBlur stdDeviation="0.359043" result="effect1_foregroundBlur_495_7930"/>
</filter>
<filter id="filter2_f_495_7930" x="23.2897" y="203.921" width="2.58461" height="2.44398" filterUnits="userSpaceOnUse" color-interpolation-filters="sRGB">
<feFlood flood-opacity="0" result="BackgroundImageFix"/>
<feBlend mode="normal" in="SourceGraphic" in2="BackgroundImageFix" result="shape"/>
<feGaussianBlur stdDeviation="0.359043" result="effect1_foregroundBlur_495_7930"/>
</filter>
<filter id="filter3_f_495_7930" x="71.4382" y="318.995" width="2.58461" height="2.44398" filterUnits="userSpaceOnUse" color-interpolation-filters="sRGB">
<feFlood flood-opacity="0" result="BackgroundImageFix"/>
<feBlend mode="normal" in="SourceGraphic" in2="BackgroundImageFix" result="shape"/>
<feGaussianBlur stdDeviation="0.359043" result="effect1_foregroundBlur_495_7930"/>
</filter>
<filter id="filter4_f_495_7930" x="211.673" y="77.7136" width="2.58461" height="2.44398" filterUnits="userSpaceOnUse" color-interpolation-filters="sRGB">
<feFlood flood-opacity="0" result="BackgroundImageFix"/>
<feBlend mode="normal" in="SourceGraphic" in2="BackgroundImageFix" result="shape"/>
<feGaussianBlur stdDeviation="0.359043" result="effect1_foregroundBlur_495_7930"/>
</filter>
<filter id="filter5_f_495_7930" x="253.93" y="13.5182" width="4.93617" height="4.52406" filterUnits="userSpaceOnUse" color-interpolation-filters="sRGB">
<feFlood flood-opacity="0" result="BackgroundImageFix"/>
<feBlend mode="normal" in="SourceGraphic" in2="BackgroundImageFix" result="shape"/>
<feGaussianBlur stdDeviation="0.359043" result="effect1_foregroundBlur_495_7930"/>
</filter>
<filter id="filter6_f_495_7930" x="28.8366" y="130.671" width="4.93617" height="4.52406" filterUnits="userSpaceOnUse" color-interpolation-filters="sRGB">
<feFlood flood-opacity="0" result="BackgroundImageFix"/>
<feBlend mode="normal" in="SourceGraphic" in2="BackgroundImageFix" result="shape"/>
<feGaussianBlur stdDeviation="0.359043" result="effect1_foregroundBlur_495_7930"/>
</filter>
<filter id="filter7_f_495_7930" x="118.516" y="176.807" width="4.93617" height="4.52406" filterUnits="userSpaceOnUse" color-interpolation-filters="sRGB">
<feFlood flood-opacity="0" result="BackgroundImageFix"/>
<feBlend mode="normal" in="SourceGraphic" in2="BackgroundImageFix" result="shape"/>
<feGaussianBlur stdDeviation="0.359043" result="effect1_foregroundBlur_495_7930"/>
</filter>
<filter id="filter8_f_495_7930" x="238.282" y="448.844" width="4.93617" height="4.52406" filterUnits="userSpaceOnUse" color-interpolation-filters="sRGB">
<feFlood flood-opacity="0" result="BackgroundImageFix"/>
<feBlend mode="normal" in="SourceGraphic" in2="BackgroundImageFix" result="shape"/>
<feGaussianBlur stdDeviation="0.359043" result="effect1_foregroundBlur_495_7930"/>
</filter>
<filter id="filter9_f_495_7930" x="291.844" y="448.844" width="4.93617" height="4.52406" filterUnits="userSpaceOnUse" color-interpolation-filters="sRGB">
<feFlood flood-opacity="0" result="BackgroundImageFix"/>
<feBlend mode="normal" in="SourceGraphic" in2="BackgroundImageFix" result="shape"/>
<feGaussianBlur stdDeviation="0.359043" result="effect1_foregroundBlur_495_7930"/>
</filter>
<filter id="filter10_f_495_7930" x="221.43" y="345.967" width="4.93617" height="4.52406" filterUnits="userSpaceOnUse" color-interpolation-filters="sRGB">
<feFlood flood-opacity="0" result="BackgroundImageFix"/>
<feBlend mode="normal" in="SourceGraphic" in2="BackgroundImageFix" result="shape"/>
<feGaussianBlur stdDeviation="0.359043" result="effect1_foregroundBlur_495_7930"/>
</filter>
<filter id="filter11_f_495_7930" x="252.727" y="230.895" width="4.93617" height="4.52406" filterUnits="userSpaceOnUse" color-interpolation-filters="sRGB">
<feFlood flood-opacity="0" result="BackgroundImageFix"/>
<feBlend mode="normal" in="SourceGraphic" in2="BackgroundImageFix" result="shape"/>
<feGaussianBlur stdDeviation="0.359043" result="effect1_foregroundBlur_495_7930"/>
</filter>
<filter id="filter12_f_495_7930" x="298.462" y="301.954" width="4.93617" height="4.52406" filterUnits="userSpaceOnUse" color-interpolation-filters="sRGB">
<feFlood flood-opacity="0" result="BackgroundImageFix"/>
<feBlend mode="normal" in="SourceGraphic" in2="BackgroundImageFix" result="shape"/>
<feGaussianBlur stdDeviation="0.359043" result="effect1_foregroundBlur_495_7930"/>
</filter>
</defs>
</svg>
