<svg width="30" height="30" viewBox="0 0 30 30" fill="none" xmlns="http://www.w3.org/2000/svg">
<path fill-rule="evenodd" clip-rule="evenodd" d="M27.3954 0C26.8812 0 26.3785 0.158733 25.9507 0.456196L18.9934 5.29333C17.1232 6.59359 15.4316 8.1395 13.9572 9.88713C16.8658 11.268 19.206 13.7038 20.5383 16.7136C22.2064 15.1801 23.6822 13.4218 24.9243 11.4787L29.5625 4.22298C29.8477 3.77679 29.9999 3.25253 29.9999 2.71627C29.9999 1.21611 28.8338 0 27.3954 0ZM16.0272 20.0356C17.0418 19.4478 18.0139 18.7907 18.9379 18.0699C17.7907 15.0891 15.5207 12.7188 12.6901 11.5132C11.9923 12.4838 11.3567 13.5055 10.7885 14.5721L10.407 15.2883C12.7857 15.9977 14.6603 17.9526 15.3407 20.4334L16.0272 20.0356ZM8.42548 17.1427C5.58848 17.1427 3.28869 19.5411 3.28869 22.4998C3.28869 23.6833 2.36877 24.6427 1.23397 24.6427C1.18745 24.6427 1.14114 24.6411 1.09513 24.6379C0.716857 24.6118 0.355549 24.8051 0.155195 25.1408C-0.0451581 25.4764 -0.0519914 25.8998 0.137419 26.2423C1.37819 28.4858 3.70431 29.9998 6.37076 29.9998C10.3425 29.9998 13.5623 26.642 13.5623 22.4998C13.5623 19.5411 11.2625 17.1427 8.42548 17.1427Z" fill="white"/>
</svg>
