<svg width="21" height="18" viewBox="0 0 21 18" fill="none" xmlns="http://www.w3.org/2000/svg">
<path d="M1 8.10411C1 6.53471 2.27225 5.26246 3.84164 5.26246H16.629C18.1984 5.26246 19.4707 6.53471 19.4707 8.10411C19.4707 9.6735 18.1984 10.9457 16.629 10.9457H3.84164C2.27225 10.9457 1 9.6735 1 8.10411Z" fill="#252931"/>
<path d="M1 13.7874C1 12.218 2.27225 10.9457 3.84164 10.9457H16.629C18.1984 10.9457 19.4707 12.218 19.4707 13.7874C19.4707 15.3568 18.1984 16.629 16.629 16.629H3.84164C2.27225 16.629 1 15.3568 1 13.7874Z" fill="#252931"/>
<path d="M16.629 13.7874H16.6361V13.7945H16.629V13.7874Z" fill="#252931"/>
<path d="M16.629 8.10411H16.6361V8.11121H16.629V8.10411Z" fill="#252931"/>
<path d="M13.7874 13.7874H13.7945V13.7945H13.7874V13.7874Z" fill="#252931"/>
<path d="M13.7874 8.10411H13.7945V8.11121H13.7874V8.10411Z" fill="#252931"/>
<path d="M3.84164 10.9457H16.629M3.84164 10.9457C2.27225 10.9457 1 9.6735 1 8.10411M3.84164 10.9457C2.27225 10.9457 1 12.218 1 13.7874C1 15.3568 2.27225 16.629 3.84164 16.629H16.629C18.1984 16.629 19.4707 15.3568 19.4707 13.7874C19.4707 12.218 18.1984 10.9457 16.629 10.9457M1 8.10411C1 6.53471 2.27225 5.26246 3.84164 5.26246H16.629C18.1984 5.26246 19.4707 6.53471 19.4707 8.10411M1 8.10411C1 7.18184 1.29913 6.28444 1.85249 5.54663L4.30341 2.27874C4.90715 1.47375 5.85466 1 6.86089 1H13.6098C14.616 1 15.5635 1.47375 16.1673 2.27874L18.6182 5.54663C19.1715 6.28444 19.4707 7.18184 19.4707 8.10411M19.4707 8.10411C19.4707 9.6735 18.1984 10.9457 16.629 10.9457M16.629 13.7874H16.6361V13.7945H16.629V13.7874ZM16.629 8.10411H16.6361V8.11121H16.629V8.10411ZM13.7874 13.7874H13.7945V13.7945H13.7874V13.7874ZM13.7874 8.10411H13.7945V8.11121H13.7874V8.10411Z" stroke="white" stroke-width="1.42082" stroke-linecap="round" stroke-linejoin="round"/>
</svg>
