<svg width="236" height="236" viewBox="0 0 236 236" fill="none" xmlns="http://www.w3.org/2000/svg">
<path d="M127.5 4.3902V11.5757C127.5 15.8048 129.378 19.8154 132.627 22.5228L146.163 33.8026C151.758 38.4647 152.937 46.5949 148.897 52.6542L142.424 62.3637C138.909 67.637 133.736 71.5881 127.723 73.5923L125.922 74.1928C117.148 77.1175 113.556 87.5845 118.686 95.2797C123.366 102.3 120.835 111.833 113.289 115.606L80 132.25L85.363 145.658C87.7014 151.503 85.1683 158.166 79.5368 160.982C74.3038 163.598 67.9483 162.098 64.4379 157.417L55.8342 145.946C49.4783 137.471 36.426 138.648 31.6886 148.123L23 165.5L15.2485 167.438M127.5 4.3902C124.368 4.13178 121.199 4 118 4C55.0395 4 4 55.0395 4 118C4 135.713 8.03986 152.483 15.2485 167.438M127.5 4.3902C186.016 9.21763 232 58.2387 232 118C232 141.803 224.705 163.903 212.228 182.184M212.228 182.184L209.996 175.488C206.117 163.85 195.226 156 182.958 156H175L170.891 151.891C167.439 148.439 162.757 146.5 157.876 146.5C150.904 146.5 144.53 150.439 141.413 156.675L140.95 157.6C138.433 162.634 133.919 166.38 128.507 167.927L115.983 171.505C109.014 173.496 104.65 180.4 105.842 187.549L106.766 193.094C107.767 199.099 112.962 203.5 119.049 203.5C129.769 203.5 139.287 210.36 142.677 220.53L145.396 228.687M212.228 182.184C196.654 205.005 173.006 221.876 145.396 228.687M145.396 228.687C136.62 230.852 127.444 232 118 232C72.7528 232 33.6624 205.639 15.2485 167.438M165.497 80C165.497 91.3496 160.521 101.537 152.632 108.5" stroke="url(#paint0_radial_495_8773)" stroke-width="8" stroke-linecap="round" stroke-linejoin="round"/>
<defs>
<radialGradient id="paint0_radial_495_8773" cx="0" cy="0" r="1" gradientUnits="userSpaceOnUse" gradientTransform="translate(118 118) rotate(90) scale(123)">
<stop offset="0.421167" stop-color="#49A5F2"/>
<stop offset="1" stop-color="#49A5F2" stop-opacity="0"/>
</radialGradient>
</defs>
</svg>
