<svg width="92" height="92" viewBox="0 0 92 92" fill="none" xmlns="http://www.w3.org/2000/svg">
<path fill-rule="evenodd" clip-rule="evenodd" d="M0 4.18182C0 1.87226 1.87226 0 4.18182 0H8.36364C54.5547 0 92 37.4453 92 83.6364V87.8182C92 90.1277 90.1277 92 87.8182 92H83.6364C81.3268 92 79.4545 90.1277 79.4545 87.8182V83.6364C79.4545 44.3739 47.6261 12.5455 8.36364 12.5455H4.18182C1.87226 12.5455 0 10.6732 0 8.36364V4.18182ZM0 41.8182C0 39.5086 1.87226 37.6364 4.18182 37.6364H8.36364C33.7687 37.6364 54.3636 58.2313 54.3636 83.6364V87.8182C54.3636 90.1277 52.4914 92 50.1818 92H46C43.6904 92 41.8182 90.1277 41.8182 87.8182V83.6364C41.8182 65.1599 26.8401 50.1818 8.36364 50.1818H4.18182C1.87226 50.1818 0 48.3096 0 46V41.8182ZM0 83.6364C2.49256e-07 79.0172 3.74453 75.2727 8.36364 75.2727C12.9827 75.2727 16.7273 79.0172 16.7273 83.6364C16.7273 88.2555 12.9827 92 8.36364 92C3.74453 92 0 88.2555 0 83.6364Z" fill="#4AA6F3"/>
</svg>
